<?xml version="1.0" encoding="iso-8859-1"?>
<!-- Generator: Adobe Illustrator 16.0.0, SVG Export Plug-In . SVG Version: 6.00 Build 0)  -->
<!DOCTYPE svg PUBLIC "-//W3C//DTD SVG 1.1//EN" "http://www.w3.org/Graphics/SVG/1.1/DTD/svg11.dtd">
<svg version="1.1" id="Capa_1" xmlns="http://www.w3.org/2000/svg" xmlns:xlink="http://www.w3.org/1999/xlink" x="0px" y="0px"
	 width="484.002px" height="484.002px" viewBox="0 0 484.002 484.002" style="enable-background:new 0 0 484.002 484.002;"
	 xml:space="preserve">
<g>
	<g id="_x33_0_33_">
		<path d="M242.001,0.002C108.348,0.002,0,108.348,0,242.002C0,375.652,108.348,484,242.001,484
			c133.651,0,242.001-108.348,242.001-241.998C484.002,108.348,375.652,0.002,242.001,0.002z M301.397,283.492
			c6.827,6.834,76.396,77.439,76.396,77.439l-0.096,0.037c0.096,0.062,0.186,0.1,0.263,0.195c6.466,6.408,6.466,16.842,0,23.22
			c-6.368,6.419-16.843,6.419-23.22,0c-0.086-0.038-0.175-0.135-0.175-0.224h-0.1c0,0-78.934-78.942-86.772-86.812
			c-1.27-1.275-7.725-7.732-17.395-17.418c-18.455,18.441-108.031,107.995-108.031,107.995l-0.02-0.02
			c-0.061,0.06-0.089,0.166-0.189,0.262c-6.368,6.37-16.754,6.37-23.138-0.019c-6.378-6.389-6.402-16.744-0.008-23.143
			c0.09-0.098,0.188-0.125,0.271-0.203l-0.016-0.021c0,0,89.464-89.464,108.022-108.043
			C174.3,203.748,88.702,117.908,88.702,117.908l3.804-3.851c0,0,48.005-13.32,175.303,111.213
			c6.514-8.768,11.536-20.295,12.482-35.828c-1.348-12.238,2.682-24.957,12.055-34.318c0.858-0.867,3.336-2.955,3.336-2.955
			l68.283-53.197l6.221,6.224l-74.096,69.51l8.035,8.026l71.795-71.773l6.604,6.583l-71.787,71.793l6.789,6.788l71.772-71.784
			l5.998,5.957l-71.354,71.355l8.181,8.202l69.327-73.394l6.809,6.826l-56.668,71.424c0,0-1.356,1.375-1.931,1.882
			c-8.241,7.207-18.598,10.609-28.858,10.329c-0.059,0-0.176,0.008-0.214,0.029c-22.684,0.232-38.044,11.856-48.604,23.958
			C272.415,271.359,297.167,282.251,301.397,283.492z"/>
	</g>
</g>
<g>
</g>
<g>
</g>
<g>
</g>
<g>
</g>
<g>
</g>
<g>
</g>
<g>
</g>
<g>
</g>
<g>
</g>
<g>
</g>
<g>
</g>
<g>
</g>
<g>
</g>
<g>
</g>
<g>
</g>
</svg>
